#!OML:ASF E:\inclinewalkrobotboard\Project 1\Capture day 1\Session 1\subject1.ASF
:FULLY-SPECIFIED
:DEGREES
487
root 10.6125 17.2977 32.44 16.5884 -13.0318 -0.949757
lowerback 0.0337892 2.56475 -11.2667
upperback 4.58937 3.7175 -0.822107
thorax 4.16702 1.43364 5.54451
lowerneck 0.343917 3.3065 -8.36398
upperneck 17.384 2.6222 15.4032
head 4.67803 1.63335 6.38387
rclavicle 1.19271e-015 -1.19271e-014
rhumerus -36.4586 -17.3094 -73.6579
rradius 28.6422
rwrist 12.8105
rhand -12.2506 -36.7371
rfingers 7.12502
rthumb 13.8155 -66.2583
lclavicle 1.19271e-015 -1.19271e-014
lhumerus -14.5563 -6.50334 83.3544
lradius 19.339
lwrist -19.5115
lhand -27.8176 -18.5491
lfingers 7.12502
lthumb -1.20978 11.4272
rfemur -29.0775 8.07071 8.4246
rtibia 28.114
rfoot -17.5229 -5.0978
rtoes -38.3495
lfemur -25.6163 -10.0324 -13.2261
ltibia 20.1941
lfoot -17.3551 17.8416
ltoes -68.8479
488
root 10.601 17.2985 32.5474 16.2155 -12.7683 -1.15467
lowerback 0.290469 2.44543 -10.7043
upperback 4.70547 3.51121 -0.551912
thorax 4.18745 1.34234 5.50506
lowerneck -0.0466692 3.11801 -8.04903
upperneck 18.1433 2.29073 15.3751
head 5.02527 1.51519 6.35153
rclavicle 3.18055e-015 3.18055e-014
rhumerus -37.7537 -18.5019 -72.5838
rradius 28.3392
rwrist 13.006
rhand -12.4245 -36.8933
rfingers 7.12502
rthumb 13.6479 -66.4259
lclavicle 3.18055e-015 3.18055e-014
lhumerus -14.1583 -7.20476 83.9768
lradius 19.7217
lwrist -19.0011
lhand -27.779 -18.5413
lfingers 7.12502
lthumb -1.17242 11.4353
rfemur -29.7904 8.23976 8.76836
rtibia 27.6809
rfoot -16.4 -5.6353
rtoes -37.5934
lfemur -24.6496 -9.81612 -13.2181
ltibia 19.9999
lfoot -17.6952 17.315
ltoes -68.8021
489
root 10.587 17.2991 32.6572 15.9562 -12.392 -1.33392
lowerback 0.440357 2.26555 -10.0776
upperback 4.77574 3.23665 -0.298671
thorax 4.23298 1.22066 5.41459
lowerneck -0.615115 2.85272 -7.82712
upperneck 19.09 1.84501 15.3431
head 5.47627 1.34642 6.34198
rclavicle -2.78299e-015 -1.43125e-014
rhumerus -39.0387 -19.8308 -71.4419
rradius 27.8831
rwrist 13.4782
rhand -12.8648 -36.8241
rfingers 7.12502
rthumb 13.2235 -66.3847
lclavicle -2.78299e-015 -1.43125e-014
lhumerus -13.7532 -7.93105 84.5743
lradius 20.1022
lwrist -18.5012
lhand -27.1125 -18.2891
lfingers 7.12502
lthumb -0.528753 11.69
rfemur -30.5362 8.31376 9.02246
rtibia 27.1946
rfoot -15.2332 -6.18163
rtoes -33.9852
lfemur -23.8409 -9.79688 -13.184
ltibia 19.8429
lfoot -18.0289 16.8556
ltoes -68.8497
490
root 10.565 17.2984 32.7734 15.6601 -12.0858 -1.00993
lowerback 0.491593 2.0778 -9.98437
upperback 4.83421 2.9781 -0.149933
thorax 4.30513 1.08726 5.51532
lowerneck -0.226667 2.73216 -6.86645
upperneck 19.0717 1.75469 14.3341
head 5.45504 1.28939 5.82643
rclavicle -2.98177e-014 4.77083e-015
rhumerus -40.3797 -21.2727 -70.1596
rradius 27.4137
rwrist 14.2796
rhand -13.3277 -36.7835
rfingers 7.12502
rthumb 12.7773 -66.3725
lclavicle -2.98177e-014 4.77083e-015
lhumerus -13.4152 -8.75426 85.2156
lradius 20.5851
lwrist -18.0158
lhand -26.4404 -18.1714
lfingers 7.12502
lthumb 0.120395 11.8083
rfemur -31.2617 8.31303 8.5941
rtibia 26.6539
rfoot -14.3535 -6.8956
rtoes -30.741
lfemur -23.1179 -9.8251 -13.7375
ltibia 19.7861
lfoot -18.389 16.4383
ltoes -68.8745
491
root 10.5354 17.2925 32.8955 15.3633 -11.7296 -0.572281
lowerback 0.472931 1.8746 -9.97848
upperback 4.90809 2.71089 -0.030149
thorax 4.43476 0.943056 5.63714
lowerneck 0.278869 2.62413 -7.10987
upperneck 18.6737 1.56058 14.8201
head 5.25076 1.18389 5.99911
rclavicle 1.53064e-014 -2.26615e-014
rhumerus -41.7932 -22.674 -68.8625
rradius 27.0595
rwrist 15.2124
rhand -13.7253 -36.719
rfingers 7.12502
rthumb 12.394 -66.3316
lclavicle 1.53064e-014 -2.26615e-014
lhumerus -13.1351 -9.6484 85.8723
lradius 21.1935
lwrist -17.4527
lhand -26.1401 -18.2264
lfingers 7.12502
lthumb 0.410445 11.7529
rfemur -31.8628 8.13934 7.98649
rtibia 25.9269
rfoot -13.54 -7.47701
rtoes -30.266
lfemur -22.4197 -9.81267 -14.4209
ltibia 19.8097
lfoot -18.7876 15.9208
ltoes -68.8293
492
root 10.4979 17.2824 33.018 15.1554 -11.3476 -0.33331
lowerback 0.476308 1.61435 -9.85232
upperback 4.91383 2.35539 0.17541
thorax 4.4949 0.764074 5.77761
lowerneck 0.16354 2.48739 -7.68454
upperneck 18.9383 1.25855 15.6009
head 5.36215 1.05444 6.36462
rclavicle 7.15625e-015 2.8625e-014
rhumerus -43.1086 -23.8697 -67.5624
rradius 26.536
rwrist 16.1821
rhand -13.6065 -36.843
rfingers 7.12502
rthumb 12.5085 -66.4486
lclavicle 7.15625e-015 2.8625e-014
lhumerus -13.01 -10.1614 86.5189
lradius 21.8194
lwrist -17.0906
lhand -26.0142 -18.2931
lfingers 7.12502
lthumb 0.532077 11.686
rfemur -32.4697 7.89415 7.56559
rtibia 25.1085
rfoot -12.6264 -7.79044
rtoes -30.3563
lfemur -21.8048 -9.78621 -14.8052
ltibia 19.8915
lfoot -19.0977 15.5488
ltoes -68.9373
